<svg
    width="54"
    height="54"
    viewBox="0 0 54 54"
    fill="#FFD580"
    stroke="slate"
    xmlns="http://www.w3.org/2000/svg"
>
    <circle cx="27" cy="27" r="27" />
    <path
        d="M36.24 18H17.7543C16.2343 18 15 19.2764 15 20.8411V32.5289C15.0015 33.2835 15.2934 34.0067 15.8117 34.5403C16.3301 35.0738 17.0327 35.3743 17.7657 35.3758H20.1543V38.4404C20.1543 38.6522 20.2686 38.8404 20.4514 38.9404C20.541 38.9872 20.6416 39.0071 20.7417 38.9977C20.8418 38.9884 20.9372 38.9502 21.0171 38.8875L25.6457 35.3758H36.24C37.76 35.3758 39 34.0994 39 32.5289V20.847C39 19.2764 37.76 18 36.24 18ZM21.3829 28.3055C20.4057 28.3055 19.6171 27.4879 19.6171 26.482C19.6171 25.4821 20.4057 24.6645 21.3829 24.6645C22.36 24.6645 23.1486 25.4821 23.1486 26.482C23.1486 26.9646 22.9627 27.4276 22.6318 27.7693C22.3008 28.1111 21.8517 28.3039 21.3829 28.3055ZM27 28.3055C26.0229 28.3055 25.2343 27.4879 25.2343 26.482C25.2343 25.4821 26.0229 24.6645 27 24.6645C27.9771 24.6645 28.7657 25.4821 28.7657 26.482C28.7657 26.9646 28.5799 27.4276 28.2489 27.7693C27.9179 28.1111 27.4688 28.3039 27 28.3055ZM32.6171 28.3055C31.64 28.3055 30.8514 27.4879 30.8514 26.482C30.8514 25.4821 31.64 24.6645 32.6171 24.6645C33.5943 24.6645 34.3829 25.4821 34.3829 26.482C34.3829 26.9646 34.197 27.4276 33.866 27.7693C33.5351 28.1111 33.086 28.3039 32.6171 28.3055Z"
        fill="#FEFEFF"
    />
</svg>