<svg width="613" height="141" viewBox="0 0 613 141" fill="none" xmlns="http://www.w3.org/2000/svg">
<rect x="71" y="67" width="70" height="7" fill="black"/>
<path fill-rule="evenodd" clip-rule="evenodd" d="M81.339 87.5308C79.081 88.4771 76.6016 89 74 89C63.5066 89 55 80.4934 55 70C55 59.5066 63.5066 51 74 51C76.6016 51 79.081 51.5229 81.339 52.4692C82.7075 51.1892 84.2259 50.0675 85.8652 49.1334C82.3657 47.1392 78.3159 46 74 46C60.7452 46 50 56.7452 50 70C50 83.2548 60.7452 94 74 94C78.3159 94 82.3657 92.8608 85.8652 90.8666C84.2259 89.9325 82.7075 88.8108 81.339 87.5308Z" fill="#C00000"/>
<path fill-rule="evenodd" clip-rule="evenodd" d="M134 70.5C134 105.57 105.57 134 70.5 134C35.4299 134 7 105.57 7 70.5C7 35.4299 35.4299 7 70.5 7C88.7372 7 105.179 14.6881 116.76 27H125.984C113.077 10.5606 93.0217 0 70.5 0C31.5639 0 0 31.5639 0 70.5C0 109.436 31.5639 141 70.5 141C109.436 141 141 109.436 141 70.5C141 69.3264 140.971 68.1595 140.915 67H133.905C133.968 68.1587 134 69.3256 134 70.5Z" fill="black"/>
<circle cx="168.5" cy="72.5" r="20.5" fill="#FFA95A"/>
<circle cx="211.5" cy="29.5" r="15.5" fill="#FFA95A"/>
<circle cx="205.5" cy="109.5" r="11.5" fill="#FFA95A"/>
<rect x="167.583" y="71.5477" width="57.9326" height="5.34673" transform="rotate(-45 167.583 71.5477)" fill="#FFA95A"/>
<rect x="173.095" y="69" width="57.9326" height="5.34673" transform="rotate(49.9848 173.095 69)" fill="#FFA95A"/>
<line x1="245.5" y1="4" x2="245.5" y2="135" stroke="black"/>
<path d="M282.336 29.7578C280.445 29.7578 278.742 30.0859 277.227 30.7422C275.727 31.3828 274.445 32.3203 273.383 33.5547C272.336 34.7734 271.531 36.25 270.969 37.9844C270.406 39.7188 270.125 41.6719 270.125 43.8438C270.125 46.7188 270.57 49.2188 271.461 51.3438C272.367 53.4531 273.711 55.0859 275.492 56.2422C277.289 57.3984 279.531 57.9766 282.219 57.9766C283.75 57.9766 285.188 57.8516 286.531 57.6016C287.891 57.3359 289.211 57.0078 290.492 56.6172V60.0859C289.242 60.5547 287.93 60.8984 286.555 61.1172C285.18 61.3516 283.547 61.4688 281.656 61.4688C278.172 61.4688 275.258 60.75 272.914 59.3125C270.586 57.8594 268.836 55.8125 267.664 53.1719C266.508 50.5312 265.93 47.4141 265.93 43.8203C265.93 41.2266 266.289 38.8594 267.008 36.7188C267.742 34.5625 268.805 32.7031 270.195 31.1406C271.602 29.5781 273.32 28.375 275.352 27.5312C277.398 26.6719 279.742 26.2422 282.383 26.2422C284.117 26.2422 285.789 26.4141 287.398 26.7578C289.008 27.1016 290.461 27.5938 291.758 28.2344L290.164 31.6094C289.07 31.1094 287.867 30.6797 286.555 30.3203C285.258 29.9453 283.852 29.7578 282.336 29.7578ZM323.641 43.8203C323.641 46.4609 323.305 48.8672 322.633 51.0391C321.961 53.1953 320.961 55.0547 319.633 56.6172C318.32 58.1641 316.688 59.3594 314.734 60.2031C312.781 61.0469 310.516 61.4688 307.938 61.4688C305.281 61.4688 302.961 61.0469 300.977 60.2031C299.008 59.3594 297.367 58.1562 296.055 56.5938C294.758 55.0312 293.781 53.1641 293.125 50.9922C292.484 48.8203 292.164 46.4141 292.164 43.7734C292.164 40.2734 292.742 37.2031 293.898 34.5625C295.055 31.9219 296.805 29.8672 299.148 28.3984C301.508 26.9297 304.461 26.1953 308.008 26.1953C311.398 26.1953 314.25 26.9219 316.562 28.375C318.891 29.8281 320.648 31.875 321.836 34.5156C323.039 37.1406 323.641 40.2422 323.641 43.8203ZM296.359 43.8203C296.359 46.7266 296.773 49.2422 297.602 51.3672C298.43 53.4922 299.695 55.1328 301.398 56.2891C303.117 57.4453 305.297 58.0234 307.938 58.0234C310.594 58.0234 312.766 57.4453 314.453 56.2891C316.156 55.1328 317.414 53.4922 318.227 51.3672C319.039 49.2422 319.445 46.7266 319.445 43.8203C319.445 39.3984 318.516 35.9453 316.656 33.4609C314.812 30.9609 311.93 29.7109 308.008 29.7109C305.352 29.7109 303.164 30.2812 301.445 31.4219C299.727 32.5625 298.445 34.1875 297.602 36.2969C296.773 38.3906 296.359 40.8984 296.359 43.8203ZM346.617 51.8828C346.617 53.9141 346.109 55.6484 345.094 57.0859C344.094 58.5078 342.688 59.5938 340.875 60.3438C339.062 61.0938 336.93 61.4688 334.477 61.4688C333.18 61.4688 331.953 61.4062 330.797 61.2812C329.641 61.1562 328.578 60.9766 327.609 60.7422C326.641 60.5078 325.789 60.2188 325.055 59.875V56.0547C326.227 56.5391 327.656 56.9922 329.344 57.4141C331.031 57.8203 332.797 58.0234 334.641 58.0234C336.359 58.0234 337.812 57.7969 339 57.3438C340.188 56.875 341.086 56.2109 341.695 55.3516C342.32 54.4766 342.633 53.4297 342.633 52.2109C342.633 51.0391 342.375 50.0625 341.859 49.2812C341.344 48.4844 340.484 47.7656 339.281 47.125C338.094 46.4688 336.469 45.7734 334.406 45.0391C332.953 44.5234 331.672 43.9609 330.562 43.3516C329.453 42.7266 328.523 42.0234 327.773 41.2422C327.023 40.4609 326.453 39.5547 326.062 38.5234C325.688 37.4922 325.5 36.3125 325.5 34.9844C325.5 33.1562 325.961 31.5938 326.883 30.2969C327.82 28.9844 329.109 27.9844 330.75 27.2969C332.406 26.5938 334.305 26.2422 336.445 26.2422C338.273 26.2422 339.961 26.4141 341.508 26.7578C343.07 27.1016 344.5 27.5625 345.797 28.1406L344.555 31.5625C343.32 31.0469 342.008 30.6172 340.617 30.2734C339.242 29.9297 337.82 29.7578 336.352 29.7578C334.883 29.7578 333.641 29.9766 332.625 30.4141C331.625 30.8359 330.859 31.4375 330.328 32.2188C329.797 33 329.531 33.9297 329.531 35.0078C329.531 36.2109 329.781 37.2109 330.281 38.0078C330.797 38.8047 331.609 39.5156 332.719 40.1406C333.844 40.75 335.328 41.3906 337.172 42.0625C339.188 42.7969 340.898 43.5781 342.305 44.4062C343.711 45.2188 344.781 46.2188 345.516 47.4062C346.25 48.5781 346.617 50.0703 346.617 51.8828ZM364.695 61L353.188 30.6719H353C353.062 31.3125 353.117 32.0938 353.164 33.0156C353.211 33.9375 353.25 34.9453 353.281 36.0391C353.312 37.1172 353.328 38.2188 353.328 39.3438V61H349.625V26.7344H355.531L366.383 55.2344H366.547L377.562 26.7344H383.422V61H379.484V39.0625C379.484 38.0469 379.5 37.0312 379.531 36.0156C379.562 34.9844 379.602 34.0156 379.648 33.1094C379.695 32.1875 379.742 31.3906 379.789 30.7188H379.602L367.953 61H364.695ZM388.797 61V26.7344H392.781V61H388.797ZM412.852 29.7578C410.961 29.7578 409.258 30.0859 407.742 30.7422C406.242 31.3828 404.961 32.3203 403.898 33.5547C402.852 34.7734 402.047 36.25 401.484 37.9844C400.922 39.7188 400.641 41.6719 400.641 43.8438C400.641 46.7188 401.086 49.2188 401.977 51.3438C402.883 53.4531 404.227 55.0859 406.008 56.2422C407.805 57.3984 410.047 57.9766 412.734 57.9766C414.266 57.9766 415.703 57.8516 417.047 57.6016C418.406 57.3359 419.727 57.0078 421.008 56.6172V60.0859C419.758 60.5547 418.445 60.8984 417.07 61.1172C415.695 61.3516 414.062 61.4688 412.172 61.4688C408.688 61.4688 405.773 60.75 403.43 59.3125C401.102 57.8594 399.352 55.8125 398.18 53.1719C397.023 50.5312 396.445 47.4141 396.445 43.8203C396.445 41.2266 396.805 38.8594 397.523 36.7188C398.258 34.5625 399.32 32.7031 400.711 31.1406C402.117 29.5781 403.836 28.375 405.867 27.5312C407.914 26.6719 410.258 26.2422 412.898 26.2422C414.633 26.2422 416.305 26.4141 417.914 26.7578C419.523 27.1016 420.977 27.5938 422.273 28.2344L420.68 31.6094C419.586 31.1094 418.383 30.6797 417.07 30.3203C415.773 29.9453 414.367 29.7578 412.852 29.7578ZM447.555 43.0469H459.531V59.6641C457.734 60.2734 455.883 60.7266 453.977 61.0234C452.086 61.3203 449.969 61.4688 447.625 61.4688C444.062 61.4688 441.055 60.7578 438.602 59.3359C436.164 57.9141 434.312 55.8906 433.047 53.2656C431.781 50.625 431.148 47.4922 431.148 43.8672C431.148 40.3203 431.844 37.2266 433.234 34.5859C434.641 31.9453 436.664 29.8984 439.305 28.4453C441.961 26.9766 445.148 26.2422 448.867 26.2422C450.773 26.2422 452.578 26.4219 454.281 26.7812C456 27.125 457.594 27.6172 459.062 28.2578L457.539 31.7266C456.273 31.1797 454.875 30.7109 453.344 30.3203C451.828 29.9297 450.258 29.7344 448.633 29.7344C445.836 29.7344 443.438 30.3125 441.438 31.4688C439.453 32.625 437.93 34.2578 436.867 36.3672C435.82 38.4766 435.297 40.9766 435.297 43.8672C435.297 46.7266 435.758 49.2188 436.68 51.3438C437.602 53.4531 439.039 55.0938 440.992 56.2656C442.945 57.4375 445.461 58.0234 448.539 58.0234C450.086 58.0234 451.414 57.9375 452.523 57.7656C453.633 57.5781 454.641 57.3594 455.547 57.1094V46.6094H447.555V43.0469ZM463.828 61V26.7344H467.812V57.4375H483.023V61H463.828ZM514.625 43.8203C514.625 46.4609 514.289 48.8672 513.617 51.0391C512.945 53.1953 511.945 55.0547 510.617 56.6172C509.305 58.1641 507.672 59.3594 505.719 60.2031C503.766 61.0469 501.5 61.4688 498.922 61.4688C496.266 61.4688 493.945 61.0469 491.961 60.2031C489.992 59.3594 488.352 58.1562 487.039 56.5938C485.742 55.0312 484.766 53.1641 484.109 50.9922C483.469 48.8203 483.148 46.4141 483.148 43.7734C483.148 40.2734 483.727 37.2031 484.883 34.5625C486.039 31.9219 487.789 29.8672 490.133 28.3984C492.492 26.9297 495.445 26.1953 498.992 26.1953C502.383 26.1953 505.234 26.9219 507.547 28.375C509.875 29.8281 511.633 31.875 512.82 34.5156C514.023 37.1406 514.625 40.2422 514.625 43.8203ZM487.344 43.8203C487.344 46.7266 487.758 49.2422 488.586 51.3672C489.414 53.4922 490.68 55.1328 492.383 56.2891C494.102 57.4453 496.281 58.0234 498.922 58.0234C501.578 58.0234 503.75 57.4453 505.438 56.2891C507.141 55.1328 508.398 53.4922 509.211 51.3672C510.023 49.2422 510.43 46.7266 510.43 43.8203C510.43 39.3984 509.5 35.9453 507.641 33.4609C505.797 30.9609 502.914 29.7109 498.992 29.7109C496.336 29.7109 494.148 30.2812 492.43 31.4219C490.711 32.5625 489.43 34.1875 488.586 36.2969C487.758 38.3906 487.344 40.8984 487.344 43.8203ZM518.266 26.7344H527.969C532.25 26.7344 535.469 27.375 537.625 28.6562C539.781 29.9375 540.859 32.1172 540.859 35.1953C540.859 36.5234 540.602 37.7188 540.086 38.7812C539.586 39.8281 538.852 40.6953 537.883 41.3828C536.914 42.0703 535.719 42.5469 534.297 42.8125V43.0469C535.797 43.2812 537.125 43.7109 538.281 44.3359C539.438 44.9609 540.344 45.8359 541 46.9609C541.656 48.0859 541.984 49.5156 541.984 51.25C541.984 53.3594 541.492 55.1406 540.508 56.5938C539.539 58.0469 538.164 59.1484 536.383 59.8984C534.602 60.6328 532.492 61 530.055 61H518.266V26.7344ZM522.25 41.4297H528.812C531.797 41.4297 533.859 40.9375 535 39.9531C536.156 38.9688 536.734 37.5312 536.734 35.6406C536.734 33.6875 536.047 32.2812 534.672 31.4219C533.312 30.5625 531.141 30.1328 528.156 30.1328H522.25V41.4297ZM522.25 44.7812V57.6016H529.375C532.422 57.6016 534.578 57.0078 535.844 55.8203C537.109 54.6172 537.742 53 537.742 50.9688C537.742 49.6719 537.453 48.5625 536.875 47.6406C536.312 46.7188 535.391 46.0156 534.109 45.5312C532.844 45.0312 531.148 44.7812 529.023 44.7812H522.25ZM566.789 61L562.57 50.125H548.836L544.641 61H540.609L554.016 26.5938H557.602L570.914 61H566.789ZM561.375 46.5859L557.367 35.7812C557.273 35.5 557.117 35.0391 556.898 34.3984C556.695 33.7578 556.484 33.0938 556.266 32.4062C556.047 31.7188 555.867 31.1641 555.727 30.7422C555.57 31.3828 555.398 32.0234 555.211 32.6641C555.039 33.2891 554.867 33.875 554.695 34.4219C554.523 34.9531 554.375 35.4062 554.25 35.7812L550.172 46.5859H561.375ZM571.672 61V26.7344H575.656V57.4375H590.867V61H571.672Z" fill="black"/>
<path d="M281.211 110H277.203V79.25H266.422V75.7344H291.945V79.25H281.211V110ZM317.203 110H298.125V75.7344H317.203V79.25H302.109V90.3359H316.336V93.8047H302.109V106.484H317.203V110ZM340.445 78.7578C338.555 78.7578 336.852 79.0859 335.336 79.7422C333.836 80.3828 332.555 81.3203 331.492 82.5547C330.445 83.7734 329.641 85.25 329.078 86.9844C328.516 88.7188 328.234 90.6719 328.234 92.8438C328.234 95.7188 328.68 98.2188 329.57 100.344C330.477 102.453 331.82 104.086 333.602 105.242C335.398 106.398 337.641 106.977 340.328 106.977C341.859 106.977 343.297 106.852 344.641 106.602C346 106.336 347.32 106.008 348.602 105.617V109.086C347.352 109.555 346.039 109.898 344.664 110.117C343.289 110.352 341.656 110.469 339.766 110.469C336.281 110.469 333.367 109.75 331.023 108.312C328.695 106.859 326.945 104.812 325.773 102.172C324.617 99.5312 324.039 96.4141 324.039 92.8203C324.039 90.2266 324.398 87.8594 325.117 85.7188C325.852 83.5625 326.914 81.7031 328.305 80.1406C329.711 78.5781 331.43 77.375 333.461 76.5312C335.508 75.6719 337.852 75.2422 340.492 75.2422C342.227 75.2422 343.898 75.4141 345.508 75.7578C347.117 76.1016 348.57 76.5938 349.867 77.2344L348.273 80.6094C347.18 80.1094 345.977 79.6797 344.664 79.3203C343.367 78.9453 341.961 78.7578 340.445 78.7578ZM383 110H379.016V93.8516H361.016V110H357.031V75.7344H361.016V90.3359H379.016V75.7344H383V110ZM420.211 110H415.617L396.938 81.2188H396.75C396.797 81.9844 396.852 82.8594 396.914 83.8438C396.977 84.8125 397.023 85.8516 397.055 86.9609C397.102 88.0547 397.125 89.1719 397.125 90.3125V110H393.422V75.7344H397.992L416.602 104.422H416.766C416.734 103.875 416.695 103.102 416.648 102.102C416.602 101.086 416.555 100 416.508 98.8438C416.477 97.6719 416.461 96.5859 416.461 95.5859V75.7344H420.211V110ZM460.281 92.8203C460.281 95.4609 459.945 97.8672 459.273 100.039C458.602 102.195 457.602 104.055 456.273 105.617C454.961 107.164 453.328 108.359 451.375 109.203C449.422 110.047 447.156 110.469 444.578 110.469C441.922 110.469 439.602 110.047 437.617 109.203C435.648 108.359 434.008 107.156 432.695 105.594C431.398 104.031 430.422 102.164 429.766 99.9922C429.125 97.8203 428.805 95.4141 428.805 92.7734C428.805 89.2734 429.383 86.2031 430.539 83.5625C431.695 80.9219 433.445 78.8672 435.789 77.3984C438.148 75.9297 441.102 75.1953 444.648 75.1953C448.039 75.1953 450.891 75.9219 453.203 77.375C455.531 78.8281 457.289 80.875 458.477 83.5156C459.68 86.1406 460.281 89.2422 460.281 92.8203ZM433 92.8203C433 95.7266 433.414 98.2422 434.242 100.367C435.07 102.492 436.336 104.133 438.039 105.289C439.758 106.445 441.938 107.023 444.578 107.023C447.234 107.023 449.406 106.445 451.094 105.289C452.797 104.133 454.055 102.492 454.867 100.367C455.68 98.2422 456.086 95.7266 456.086 92.8203C456.086 88.3984 455.156 84.9453 453.297 82.4609C451.453 79.9609 448.57 78.7109 444.648 78.7109C441.992 78.7109 439.805 79.2812 438.086 80.4219C436.367 81.5625 435.086 83.1875 434.242 85.2969C433.414 87.3906 433 89.8984 433 92.8203ZM468.922 110V75.7344H472.906V106.438H488.117V110H468.922ZM524.719 92.8203C524.719 95.4609 524.383 97.8672 523.711 100.039C523.039 102.195 522.039 104.055 520.711 105.617C519.398 107.164 517.766 108.359 515.812 109.203C513.859 110.047 511.594 110.469 509.016 110.469C506.359 110.469 504.039 110.047 502.055 109.203C500.086 108.359 498.445 107.156 497.133 105.594C495.836 104.031 494.859 102.164 494.203 99.9922C493.562 97.8203 493.242 95.4141 493.242 92.7734C493.242 89.2734 493.82 86.2031 494.977 83.5625C496.133 80.9219 497.883 78.8672 500.227 77.3984C502.586 75.9297 505.539 75.1953 509.086 75.1953C512.477 75.1953 515.328 75.9219 517.641 77.375C519.969 78.8281 521.727 80.875 522.914 83.5156C524.117 86.1406 524.719 89.2422 524.719 92.8203ZM497.438 92.8203C497.438 95.7266 497.852 98.2422 498.68 100.367C499.508 102.492 500.773 104.133 502.477 105.289C504.195 106.445 506.375 107.023 509.016 107.023C511.672 107.023 513.844 106.445 515.531 105.289C517.234 104.133 518.492 102.492 519.305 100.367C520.117 98.2422 520.523 95.7266 520.523 92.8203C520.523 88.3984 519.594 84.9453 517.734 82.4609C515.891 79.9609 513.008 78.7109 509.086 78.7109C506.43 78.7109 504.242 79.2812 502.523 80.4219C500.805 81.5625 499.523 83.1875 498.68 85.2969C497.852 87.3906 497.438 89.8984 497.438 92.8203ZM548.008 92.0469H559.984V108.664C558.188 109.273 556.336 109.727 554.43 110.023C552.539 110.32 550.422 110.469 548.078 110.469C544.516 110.469 541.508 109.758 539.055 108.336C536.617 106.914 534.766 104.891 533.5 102.266C532.234 99.625 531.602 96.4922 531.602 92.8672C531.602 89.3203 532.297 86.2266 533.688 83.5859C535.094 80.9453 537.117 78.8984 539.758 77.4453C542.414 75.9766 545.602 75.2422 549.32 75.2422C551.227 75.2422 553.031 75.4219 554.734 75.7812C556.453 76.125 558.047 76.6172 559.516 77.2578L557.992 80.7266C556.727 80.1797 555.328 79.7109 553.797 79.3203C552.281 78.9297 550.711 78.7344 549.086 78.7344C546.289 78.7344 543.891 79.3125 541.891 80.4688C539.906 81.625 538.383 83.2578 537.32 85.3672C536.273 87.4766 535.75 89.9766 535.75 92.8672C535.75 95.7266 536.211 98.2188 537.133 100.344C538.055 102.453 539.492 104.094 541.445 105.266C543.398 106.438 545.914 107.023 548.992 107.023C550.539 107.023 551.867 106.938 552.977 106.766C554.086 106.578 555.094 106.359 556 106.109V95.6094H548.008V92.0469ZM578.023 92.9141L587.141 75.7344H591.43L580.016 96.7109V110H576.031V96.8984L564.594 75.7344H568.953L578.023 92.9141Z" fill="black"/>
</svg>
